<svg width="837" height="193" viewBox="0 0 837 193" fill="none" xmlns="http://www.w3.org/2000/svg">
<path fill-rule="evenodd" clip-rule="evenodd" d="M98.5357 186.247C109.036 190.3 119.905 192.326 131.143 192.326C142.38 192.326 153.157 190.3 163.473 186.247C173.974 182.01 183.277 175.93 191.383 168.009C199.673 159.903 206.213 149.863 211.002 137.889C215.792 125.73 218.187 111.822 218.187 96.163C218.187 80.1358 215.792 66.1351 211.002 54.1608C206.213 42.0022 199.673 31.9622 191.383 24.0408C183.277 15.9351 173.974 9.9479 163.473 6.07927C153.157 2.02642 142.38 0 131.143 0C120.089 0 109.313 2.11853 98.8121 6.3556C91.1551 9.3637 84.0563 13.4881 77.5156 18.7289C84.2874 21.81 90.5869 25.748 96.2755 30.4044C99.0119 23.011 102.529 17.4817 106.826 13.8165C113.089 8.28991 121.195 5.5266 131.143 5.5266C141.275 5.5266 149.473 8.28991 155.736 13.8165C162 19.1589 166.513 28.462 169.276 41.7259C172.224 54.8055 173.698 72.9512 173.698 96.163C173.698 119.191 172.224 137.336 169.276 150.6C166.513 163.68 162 172.983 155.736 178.509C149.473 183.852 141.275 186.523 131.143 186.523C121.195 186.523 113.089 183.852 106.826 178.509C102.69 174.86 99.2769 169.564 96.5869 162.622C90.8876 167.332 84.5677 171.318 77.7684 174.438C84.1623 179.383 91.0847 183.32 98.5357 186.247ZM255.47 188.457C265.97 191.036 276.287 192.326 286.419 192.326C308.894 192.326 326.21 187.26 338.369 177.128C350.712 166.812 356.883 153.548 356.883 137.336C356.883 123.52 353.014 112.282 345.277 103.624C337.54 94.7814 324.829 86.4914 307.144 78.7542L294.432 73.2276C284.853 68.8063 277.576 63.8323 272.602 58.3057C267.628 52.5949 265.141 45.0419 265.141 35.6466C265.141 26.4356 268.365 19.1589 274.813 13.8165C281.261 8.28991 289.182 5.5266 298.577 5.5266C301.709 5.5266 304.288 5.71083 306.315 6.07927C308.341 6.26349 310.552 6.72404 312.947 7.46093C316.999 8.56624 320.592 10.5006 323.723 13.2639C326.855 15.8429 329.987 20.3563 333.119 26.8041L344.448 47.5288H347.212L348.87 14.3692C342.422 9.9479 334.777 6.44771 325.934 3.86863C317.276 1.28954 308.065 0 298.301 0C284.853 0 273.063 2.11853 262.931 6.3556C252.983 10.5927 245.154 16.6719 239.443 24.5934C233.916 32.5149 231.153 41.9101 231.153 52.7791C231.153 67.8852 235.574 80.0437 244.417 89.2547C253.443 98.2815 265.878 106.295 281.721 113.296L293.051 118.269C302.814 123.059 309.907 128.033 314.328 133.191C318.75 138.165 320.96 145.166 320.96 154.192C320.96 163.772 317.644 171.601 311.012 177.681C304.565 183.76 295.722 186.799 284.485 186.799C280.247 186.799 276.379 186.523 272.879 185.97C269.563 185.234 266.063 183.944 262.378 182.102C257.22 179.891 253.167 176.852 250.22 172.983C247.272 168.93 244.509 164.325 241.93 159.166L233.363 141.205H230.6L229.218 178.786C236.219 182.839 244.969 186.063 255.47 188.457ZM372.794 182.654L367.267 184.589V187.352H442.429V184.589L434.139 182.102C426.955 179.891 423.362 175.194 423.362 168.009V117.164H432.757C452.469 117.164 468.128 114.585 479.734 109.427C491.34 104.269 499.629 97.3604 504.603 88.7021C509.762 79.8595 512.341 70.1879 512.341 59.6874C512.341 43.2918 506.169 30.12 493.827 20.1721C481.668 10.04 461.864 4.97395 434.415 4.97395H367.267V7.73725L372.517 9.9479C376.202 11.2374 378.689 12.9875 379.978 15.1982C381.268 17.4088 381.913 20.3564 381.913 24.0408V168.838C381.913 172.522 381.268 175.47 379.978 177.681C378.873 179.891 376.478 181.549 372.794 182.654ZM433.863 111.638H423.362V10.5006H432.757C441.6 10.5006 448.969 11.9743 454.864 14.9219C460.759 17.6852 465.18 22.7512 468.128 30.12C471.26 37.4888 472.825 47.8052 472.825 61.069C472.825 74.1487 471.444 84.3729 468.68 91.7417C465.917 99.1105 461.68 104.269 455.969 107.216C450.258 110.164 442.89 111.638 433.863 111.638Z" fill="#252525"/>
<path d="M108.852 96.6415C108.852 118.282 105.365 137.766 99.8109 151.755C97.0311 158.756 93.7791 164.265 90.2869 167.985C86.7988 171.7 83.237 173.471 79.7504 173.471C76.2638 173.471 72.7019 171.7 69.2138 167.985C65.7217 164.265 62.4696 158.756 59.6898 151.755C54.1354 137.766 50.6485 118.282 50.6485 96.6415C50.6485 75.0015 54.1354 55.5169 59.6898 41.5281C62.4696 34.5271 65.7217 29.0183 69.2138 25.2984C72.7019 21.5827 76.2638 19.8125 79.7504 19.8125C83.237 19.8125 86.7988 21.5827 90.2869 25.2984C93.7791 29.0183 97.0311 34.5271 99.8109 41.5281C105.365 55.5169 108.852 75.0015 108.852 96.6415Z" stroke="#252525" stroke-opacity="0.86" stroke-width="4.6563"/>
<path d="M100.64 116.898C85.5793 132.437 69.5146 144.002 55.7904 150.181C48.9217 153.274 42.7526 154.966 37.656 155.207C32.5653 155.447 28.7757 154.239 26.2721 151.813C23.7684 149.386 22.4428 145.636 22.5241 140.54C22.6055 135.439 24.1043 129.22 26.9807 122.258C32.7282 108.347 43.7851 91.9291 58.846 76.3901C73.907 60.8511 89.9716 49.2867 103.696 43.1076C110.564 40.015 116.734 38.3227 121.83 38.082C126.921 37.8415 130.711 39.0494 133.214 41.476C135.718 43.9026 137.043 47.6526 136.962 52.7484C136.881 57.85 135.382 64.0689 132.505 71.0309C126.758 84.9414 115.701 101.359 100.64 116.898Z" stroke="#252525" stroke-opacity="0.86" stroke-width="4.6563"/>
<path d="M80.3073 125.742C58.6712 126.157 39.1234 123.044 25.0307 117.759C17.9776 115.114 12.4075 111.968 8.62126 108.548C4.83932 105.132 3.00121 101.605 2.93434 98.1189C2.86748 94.6329 4.56897 91.0378 8.21712 87.479C11.8694 83.9162 17.3148 80.5591 24.2612 77.6455C38.1409 71.8239 57.555 67.9639 79.1911 67.5489C100.827 67.1339 120.375 70.2466 134.468 75.5316C141.521 78.1767 147.091 81.3225 150.877 84.7426C154.659 88.1589 156.497 91.6861 156.564 95.172C156.631 98.658 154.929 102.253 151.281 105.812C147.629 109.375 142.184 112.732 135.237 115.645C121.358 121.467 101.943 125.327 80.3073 125.742Z" stroke="#252525" stroke-opacity="0.86" stroke-width="4.6563"/>
<path d="M59.6314 117.684C43.965 102.756 32.2647 86.7898 25.9692 73.1185C22.8184 66.2764 21.0738 60.1218 20.7898 55.0275C20.5061 49.939 21.6818 46.1393 24.087 43.6151C26.4923 41.091 30.2309 39.7335 35.3272 39.7716C40.4293 39.8097 46.6607 41.2556 53.6469 44.0728C67.6057 49.7019 84.1171 60.619 99.7834 75.5475C115.45 90.4759 127.15 106.442 133.446 120.113C136.596 126.955 138.341 133.11 138.625 138.204C138.909 143.293 137.733 147.092 135.328 149.616C132.923 152.141 129.184 153.498 124.088 153.46C118.985 153.422 112.754 151.976 105.768 149.159C91.809 143.53 75.2977 132.613 59.6314 117.684Z" stroke="#252525" stroke-opacity="0.86" stroke-width="4.6563"/>
<path d="M595.28 29.7079C595.28 44.2597 585.86 54.7343 572.292 54.7343C558.794 54.7343 549.304 44.2597 549.304 29.7079C549.304 15.156 558.794 4.68143 572.292 4.68143C585.86 4.68143 595.28 15.156 595.28 29.7079ZM553.241 29.7079C553.241 42.2914 561.044 51.2193 572.292 51.2193C583.61 51.2193 591.413 42.2914 591.413 29.7079C591.413 17.1243 583.61 8.19638 572.292 8.19638C561.044 8.19638 553.241 17.1243 553.241 29.7079ZM620.097 18.2491C629.868 18.2491 636.898 25.279 636.898 36.4566C636.898 47.2826 629.868 54.7343 620.097 54.7343C613.348 54.7343 608.497 51.2896 606.459 46.0875V68.3723H602.874V18.6709H605.967L606.529 26.8256C608.779 21.8344 613.418 18.2491 620.097 18.2491ZM619.816 51.5005C627.759 51.5005 633.243 45.3142 633.243 36.4566C633.243 27.6692 627.759 21.4126 619.816 21.4126C611.872 21.4126 606.388 27.6692 606.388 36.3863C606.388 45.3142 611.872 51.5005 619.816 51.5005ZM659.743 54.7343C649.62 54.7343 642.66 47.4232 642.66 36.2457C642.66 25.7008 649.338 18.2491 659.11 18.2491C668.671 18.2491 675.208 24.4354 675.56 35.0506C675.56 35.4724 675.49 36.0348 675.49 36.5269H646.386V37.1596C646.526 45.4548 651.518 51.5005 659.461 51.5005C665.296 51.5005 670.006 48.0559 671.412 42.5023H675.068C673.521 49.6728 667.546 54.7343 659.743 54.7343ZM646.667 33.504H671.693C671.131 25.7008 666.14 21.4126 659.18 21.4126C652.642 21.4126 647.229 26.2632 646.667 33.504ZM699.096 18.2491C707.181 18.2491 713.156 23.0998 713.156 34.3476V54.3125H709.571V34.4882C709.571 26.0523 705.423 21.5532 698.534 21.5532C690.942 21.5532 686.232 27.4583 686.232 36.7378V54.3125H682.646V18.6709H685.739L686.302 26.2632C688.341 21.6235 692.558 18.2491 699.096 18.2491ZM549.234 106.198H553.17C553.663 113.509 559.287 118.29 567.582 118.29C575.526 118.29 580.868 114.494 580.868 108.167C580.868 100.996 573.979 99.4495 566.246 98.1138C558.373 96.7782 550.359 94.6692 550.359 85.3194C550.359 76.9539 556.896 71.6814 566.879 71.6814C576.932 71.6814 583.329 77.2351 584.032 85.6709H580.165C579.322 79.2737 574.26 75.1261 566.879 75.1261C559.146 75.1261 554.155 78.7113 554.155 85.1085C554.155 92.1384 560.692 93.4038 568.214 94.6692C576.369 96.0752 584.664 98.4653 584.664 107.815C584.664 116.11 577.845 121.734 567.511 121.734C556.475 121.734 549.726 115.478 549.234 106.198ZM607.7 121.734C597.647 121.734 590.828 114.494 590.828 103.527C590.828 92.7008 597.718 85.2491 607.77 85.2491C615.855 85.2491 621.408 89.7483 622.885 97.1297H619.159C617.893 91.7869 613.675 88.4126 607.7 88.4126C599.826 88.4126 594.484 94.6692 594.484 103.527C594.484 112.385 599.897 118.501 607.7 118.501C613.605 118.501 617.893 115.126 619.088 109.854H622.885C621.479 117.095 615.784 121.734 607.7 121.734ZM631.681 78.1489C630.275 78.1489 629.15 77.0945 629.15 75.6182C629.15 74.1419 630.275 73.0874 631.681 73.0874C633.087 73.0874 634.212 74.1419 634.212 75.6182C634.212 77.0945 633.087 78.1489 631.681 78.1489ZM629.853 121.312V85.6709H633.439V121.312H629.853ZM657.614 121.734C647.491 121.734 640.532 114.423 640.532 103.246C640.532 92.7008 647.21 85.2491 656.982 85.2491C666.542 85.2491 673.08 91.4354 673.432 102.051C673.432 102.472 673.361 103.035 673.361 103.527H644.258V104.16C644.398 112.455 649.389 118.501 657.333 118.501C663.168 118.501 667.878 115.056 669.284 109.502H672.94C671.393 116.673 665.418 121.734 657.614 121.734ZM644.539 100.504H669.565C669.003 92.7008 664.012 88.4126 657.052 88.4126C650.514 88.4126 645.101 93.2632 644.539 100.504ZM696.968 85.2491C705.052 85.2491 711.028 90.0998 711.028 101.348V121.312H707.443V101.488C707.443 93.0523 703.295 88.5532 696.406 88.5532C688.813 88.5532 684.103 94.4583 684.103 103.738V121.312H680.518V85.6709H683.611L684.174 93.2632C686.212 88.6235 690.43 85.2491 696.968 85.2491ZM733.95 121.734C723.897 121.734 717.078 114.494 717.078 103.527C717.078 92.7008 723.967 85.2491 734.02 85.2491C742.104 85.2491 747.658 89.7483 749.134 97.1297H745.408C744.143 91.7869 739.925 88.4126 733.95 88.4126C726.076 88.4126 720.734 94.6692 720.734 103.527C720.734 112.385 726.147 118.501 733.95 118.501C739.855 118.501 744.143 115.126 745.338 109.854H749.134C747.728 117.095 742.034 121.734 733.95 121.734ZM771.85 121.734C761.727 121.734 754.768 114.423 754.768 103.246C754.768 92.7008 761.446 85.2491 771.218 85.2491C780.778 85.2491 787.316 91.4354 787.667 102.051C787.667 102.472 787.597 103.035 787.597 103.527H758.493V104.16C758.634 112.455 763.625 118.501 771.569 118.501C777.404 118.501 782.114 115.056 783.52 109.502H787.175C785.629 116.673 779.653 121.734 771.85 121.734ZM758.775 100.504H783.801C783.239 92.7008 778.247 88.4126 771.288 88.4126C764.75 88.4126 759.337 93.2632 758.775 100.504ZM551.062 188.312V139.103H569.339C578.689 139.103 584.735 144.868 584.735 153.444C584.735 162.021 578.619 167.785 569.339 167.785H554.858V188.312H551.062ZM569.058 142.618H554.858V164.27H568.988C576.229 164.27 580.868 159.841 580.868 153.444C580.868 146.977 576.299 142.618 569.058 142.618ZM605.274 152.671H607.172V156.116H604.571C596.206 156.116 594.307 163.005 594.307 170.246V188.312H590.722V152.671H593.815L594.378 159.771C595.854 155.834 598.666 152.671 605.274 152.671ZM625.692 188.734C615.569 188.734 608.609 181.423 608.609 170.246C608.609 159.701 615.287 152.249 625.059 152.249C634.62 152.249 641.157 158.435 641.509 169.051C641.509 169.472 641.439 170.035 641.439 170.527H612.335V171.16C612.475 179.455 617.467 185.501 625.41 185.501C631.245 185.501 635.955 182.056 637.361 176.502H641.017C639.47 183.673 633.495 188.734 625.692 188.734ZM612.616 167.504H637.642C637.08 159.701 632.089 155.413 625.129 155.413C618.591 155.413 613.178 160.263 612.616 167.504ZM646.91 177.346H650.565C650.847 182.478 655.275 185.641 662.094 185.641C667.929 185.641 672.358 182.97 672.358 178.752C672.358 173.479 667.507 172.706 661.532 171.863C654.221 170.878 647.613 169.543 647.613 162.372C647.613 156.256 653.307 152.179 661.251 152.249C668.984 152.249 674.678 155.764 675.311 162.724H671.655C671.022 158.084 666.945 155.342 661.251 155.342C655.205 155.342 651.198 158.014 651.198 162.091C651.198 167.082 656.119 167.715 661.673 168.488C669.335 169.543 675.943 171.019 675.943 178.541C675.943 184.868 669.757 188.734 662.094 188.734C653.166 188.734 647.191 184.727 646.91 177.346ZM680.48 177.346H684.136C684.417 182.478 688.846 185.641 695.665 185.641C701.5 185.641 705.928 182.97 705.928 178.752C705.928 173.479 701.078 172.706 695.102 171.863C687.791 170.878 681.183 169.543 681.183 162.372C681.183 156.256 686.877 152.179 694.821 152.249C702.554 152.249 708.248 155.764 708.881 162.724H705.225C704.593 158.084 700.515 155.342 694.821 155.342C688.776 155.342 684.768 158.014 684.768 162.091C684.768 167.082 689.689 167.715 695.243 168.488C702.906 169.543 709.514 171.019 709.514 178.541C709.514 184.868 703.327 188.734 695.665 188.734C686.737 188.734 680.761 184.727 680.48 177.346Z" fill="#252525"/>
</svg>
